<svg xmlns="http://www.w3.org/2000/svg" viewBox="0 0 64 64"><path d="M10 2h2v25h-2zM10 37h2v25h-2z"/><circle cx="11" cy="32" r="5" fill="#FF8000"/><path d="M11 38c-3.309 0-6-2.691-6-6s2.691-6 6-6 6 2.691 6 6-2.691 6-6 6zm0-10c-2.206 0-4 1.794-4 4s1.794 4 4 4 4-1.794 4-4-1.794-4-4-4zM31 2h2v41h-2zM31 53h2v9h-2z"/><circle cx="32" cy="48" r="5" fill="#666"/><path d="M32 54c-3.309 0-6-2.691-6-6s2.691-6 6-6 6 2.691 6 6-2.691 6-6 6zm0-10c-2.206 0-4 1.794-4 4s1.794 4 4 4 4-1.794 4-4-1.794-4-4-4zM52 2h2v13h-2zM52 25h2v37h-2z"/><circle cx="53" cy="20" r="5" fill="#3EBBDD"/><path d="M53 26c-3.309 0-6-2.691-6-6s2.691-6 6-6 6 2.691 6 6-2.691 6-6 6zm0-10c-2.206 0-4 1.794-4 4s1.794 4 4 4 4-1.794 4-4-1.794-4-4-4z"/></svg>